<svg xmlns="http://www.w3.org/2000/svg" viewBox="0 0 200 32" width="100%" height="100%">
  <path fill-rule="evenodd" clip-rule="evenodd" d="M50.0537 0.00146484H40.7741V30.9986H50.0537V0.00146484ZM76.3006 0.00146484H70.2429H60.9633H54.7626V7.60836H60.9633V30.9986H70.2429V7.60836H76.3006V0.00146484ZM16.5146 16.7067L20.561 0.00147437H33.2055V30.9986H24.5741V9.29289L19.2932 30.9986H12.4062L7.1301 9.29289V30.9986H0V0.00147437H12.4681L16.5146 16.7067Z" fill="#ffffff"/>
  
  <rect x="91.5" y="4" width="1.5" height="24" fill="#ffffff"/>

  <path fill-rule="evenodd" clip-rule="evenodd" d="M191.592 4.71444V11.1212H193.42V4.71444H195.505V3.2034H193.39V2.7652C193.39 1.93413 193.753 1.55637 194.448 1.55637C194.841 1.55637 195.158 1.63192 195.52 1.7528V0.211545C195.112 0.0906629 194.674 0 194.04 0C193.254 0 192.665 0.211545 192.242 0.634637C191.818 1.05773 191.592 1.72258 191.592 2.59899V3.18829H190.579V4.71444H191.592ZM136.747 17.6123V19.35H138.711V17.6123H136.747ZM136.823 20.5739V28.5522H138.651V20.5739H136.823ZM173.41 19.35V17.6123H175.375V19.35H173.41ZM173.486 28.5522V20.5739H175.314V28.5522H173.486ZM177.402 28.5521H179.23V24.0493C179.23 22.8102 179.97 22.0698 181.028 22.0698C182.116 22.0698 182.736 22.78 182.736 24.019V28.5521H184.564V23.4599C184.564 21.6165 183.521 20.4077 181.723 20.4077C180.484 20.4077 179.744 21.0574 179.23 21.7978V20.5739H177.402V28.5521ZM186.454 30.0481C187.482 30.6676 188.706 31 190.02 31C191.456 31 192.574 30.6525 193.299 29.9272C193.964 29.2623 194.312 28.265 194.312 26.9202V20.5739H192.483V21.7676C191.864 21.0272 191.033 20.4077 189.688 20.4077C187.829 20.4077 186.062 21.7978 186.062 24.155V24.1852C186.062 26.5274 187.814 27.9175 189.688 27.9175C191.003 27.9175 191.834 27.3131 192.499 26.4518V27.0713C192.499 28.673 191.607 29.5192 189.975 29.5192C188.887 29.5192 187.996 29.2019 187.134 28.673L186.454 30.0481ZM192.514 24.1701C192.514 25.4696 191.441 26.3611 190.172 26.3611C188.917 26.3611 187.905 25.4696 187.905 24.1701V24.1399C187.905 22.8253 188.902 21.9489 190.172 21.9489C191.441 21.9489 192.514 22.8404 192.514 24.1399V24.1701ZM167.44 20.5738V28.5521H169.269V25.5149C169.269 23.3995 170.387 22.3569 171.989 22.3569H172.094V20.4227C170.689 20.3623 169.767 21.1783 169.269 22.372V20.5738H167.44ZM162.28 28.7335C159.968 28.7335 158.185 27.0562 158.185 24.5932V24.563C158.185 22.2813 159.802 20.4077 162.084 20.4077C164.622 20.4077 165.907 22.4022 165.907 24.699C165.907 24.8524 165.894 25.0058 165.88 25.171L165.876 25.2128H160.013C160.21 26.5122 161.132 27.2375 162.31 27.2375C163.202 27.2375 163.836 26.9051 164.471 26.2856L165.544 27.2375C164.788 28.1442 163.746 28.7335 162.28 28.7335ZM159.998 24.0039H164.093C163.972 22.8253 163.277 21.9036 162.069 21.9036C160.95 21.9036 160.165 22.7649 159.998 24.0039ZM149.368 24.5932C149.368 27.0562 151.151 28.7335 153.463 28.7335C154.929 28.7335 155.971 28.1442 156.727 27.2375L155.654 26.2856C155.019 26.9051 154.385 27.2375 153.493 27.2375C152.315 27.2375 151.393 26.5122 151.196 25.2128H157.059L157.063 25.1709C157.077 25.0057 157.089 24.8524 157.089 24.699C157.089 22.4022 155.805 20.4077 153.266 20.4077C150.985 20.4077 149.368 22.2813 149.368 24.563V24.5932ZM155.276 24.0039H151.181C151.347 22.7649 152.133 21.9036 153.251 21.9036C154.46 21.9036 155.155 22.8253 155.276 24.0039ZM140.738 28.5521V20.5739H142.566V21.7978C143.08 21.0574 143.821 20.4077 145.06 20.4077C146.858 20.4077 147.9 21.6165 147.9 23.4599V28.5521H146.072V24.019C146.072 22.78 145.453 22.0698 144.365 22.0698C143.307 22.0698 142.566 22.8102 142.566 24.0493V28.5521H140.738ZM130.432 31C129.118 31 127.894 30.6676 126.866 30.0481L127.546 28.673C128.408 29.2019 129.299 29.5192 130.387 29.5192C132.019 29.5192 132.911 28.673 132.911 27.0713V26.4518C132.246 27.3131 131.415 27.9175 130.1 27.9175C128.226 27.9175 126.474 26.5274 126.474 24.1852V24.155C126.474 21.7978 128.241 20.4077 130.1 20.4077C131.445 20.4077 132.276 21.0272 132.895 21.7676V20.5739H134.724V26.9202C134.724 28.265 134.376 29.2623 133.711 29.9272C132.986 30.6525 131.868 31 130.432 31ZM130.584 26.3611C131.853 26.3611 132.926 25.4696 132.926 24.1701V24.1399C132.926 22.8404 131.853 21.9489 130.584 21.9489C129.314 21.9489 128.317 22.8253 128.317 24.1399V24.1701C128.317 25.4696 129.329 26.3611 130.584 26.3611ZM117.814 20.5739V28.5521H119.642V24.0493C119.642 22.8102 120.382 22.0698 121.44 22.0698C122.528 22.0698 123.148 22.78 123.148 24.019V28.5521H124.976V23.4599C124.976 21.6165 123.933 20.4077 122.135 20.4077C120.896 20.4077 120.156 21.0574 119.642 21.7978V20.5739H117.814ZM108.204 28.5522V17.9749H116.047V19.6371H110.063V22.3872H115.367V24.0493H110.063V26.8901H116.122V28.5522H108.204ZM185.348 11.3028C182.915 11.3028 181.117 9.44424 181.117 7.17769V7.14747C181.117 4.8658 182.93 2.977 185.378 2.977C187.826 2.977 189.624 4.83558 189.624 7.11725V7.14747C189.624 9.41402 187.811 11.3028 185.348 11.3028ZM185.378 9.70112C186.859 9.70112 187.796 8.55273 187.796 7.17769V7.14747C187.796 5.7422 186.783 4.5787 185.348 4.5787C183.882 4.5787 182.945 5.72709 182.945 7.11725V7.14747C182.945 8.53762 183.958 9.70112 185.378 9.70112ZM174.158 3.14262L172.088 9.06589L169.837 3.14262H167.873L171.197 11.136C170.895 11.816 170.577 12.0426 170.064 12.0426C169.686 12.0426 169.323 11.9217 168.991 11.7404L168.371 13.1004C168.93 13.4026 169.504 13.5839 170.26 13.5839C171.544 13.5839 172.255 12.9795 172.889 11.3476L176.062 3.14262H174.158ZM154.794 11.1215V3.14322H156.622V4.35205C157.136 3.64186 157.831 2.977 159.055 2.977C160.203 2.977 161.019 3.53609 161.442 4.38227C162.077 3.53609 162.923 2.977 164.132 2.977C165.87 2.977 166.927 4.08006 166.927 6.0293V11.1215H165.099V6.58838C165.099 5.31911 164.51 4.63914 163.482 4.63914C162.485 4.63914 161.775 5.33422 161.775 6.6186V11.1215H159.946V6.57327C159.946 5.33422 159.342 4.63914 158.33 4.63914C157.317 4.63914 156.622 5.39466 156.622 6.6186V11.1215H154.794ZM145.538 7.16258C145.538 9.62557 147.322 11.3028 149.633 11.3028C151.099 11.3028 152.142 10.7135 152.897 9.80689L151.824 8.85494C151.19 9.47447 150.555 9.80689 149.664 9.80689C148.485 9.80689 147.563 9.0816 147.367 7.7821H153.23L153.233 7.74027C153.247 7.57505 153.26 7.4217 153.26 7.26835C153.26 4.97157 151.976 2.977 149.437 2.977C147.155 2.977 145.538 4.85069 145.538 7.13236V7.16258ZM151.447 6.57327H147.352C147.518 5.33422 148.304 4.47293 149.422 4.47293C150.631 4.47293 151.326 5.39466 151.447 6.57327ZM139.435 11.2873C137.562 11.2873 135.733 9.79138 135.733 7.14707V7.11685C135.733 4.47253 137.532 2.9766 139.435 2.9766C140.75 2.9766 141.581 3.62635 142.155 4.38187V0.0905209H143.984V11.1211H142.155V9.79138C141.566 10.6225 140.735 11.2873 139.435 11.2873ZM139.874 9.70072C141.098 9.70072 142.186 8.67321 142.186 7.14707V7.11685C142.186 5.57559 141.098 4.56319 139.874 4.56319C138.619 4.56319 137.577 5.53026 137.577 7.11685V7.14747C137.577 8.68833 138.635 9.70072 139.874 9.70072ZM127.046 8.82453C127.046 10.4262 128.376 11.2875 129.872 11.2875C131.096 11.2875 131.927 10.7738 132.471 10.124V11.1213H134.254V6.39176C134.254 5.34914 133.982 4.50296 133.393 3.92876C132.833 3.35457 131.942 3.03725 130.748 3.03725C129.479 3.03725 128.618 3.29413 127.741 3.687L128.225 5.12248C128.95 4.82028 129.615 4.62384 130.506 4.62384C131.791 4.62384 132.486 5.22826 132.486 6.36153V6.55797C131.866 6.36153 131.232 6.22554 130.34 6.22554C128.391 6.22554 127.046 7.07172 127.046 8.79431V8.82453ZM132.516 8.25033C132.516 9.26273 131.594 9.95781 130.386 9.95781C129.509 9.95781 128.829 9.5196 128.829 8.74898V8.71875C128.829 7.88768 129.524 7.38904 130.703 7.38904C131.428 7.38904 132.048 7.52503 132.516 7.70636V8.25033ZM122.932 11.3028C120.559 11.3028 118.807 9.44424 118.807 7.17769V7.14747C118.807 4.88091 120.559 2.977 122.962 2.977C124.458 2.977 125.395 3.53609 126.15 4.35205L125.002 5.57599C124.443 4.98668 123.854 4.5787 122.947 4.5787C121.617 4.5787 120.635 5.72709 120.635 7.11725V7.14747C120.635 8.56784 121.617 9.70112 123.022 9.70112C123.884 9.70112 124.518 9.30825 125.093 8.71895L126.196 9.80689C125.41 10.6833 124.488 11.3028 122.932 11.3028ZM111.952 0.468613L107.298 11.1214H109.202L110.29 8.56778H115.291L116.364 11.1214H118.328L113.674 0.468613H111.952ZM114.611 6.92074H110.97L112.783 2.68984L114.611 6.92074Z" fill="#ffffff"/>
</svg>